<svg xmlns="http://www.w3.org/2000/svg" width="800" height="90" viewBox="0 0 800 90">
  <defs>
    <linearGradient id="lineGrad" x1="0%" y1="0%" x2="100%" y2="0%">
      <stop offset="0%" style="stop-color:#0D1117;stop-opacity:0"/>
      <stop offset="50%" style="stop-color:#38bdf8;stop-opacity:1"/>
      <stop offset="100%" style="stop-color:#0D1117;stop-opacity:0"/>
    </linearGradient>
  </defs>
  <rect width="800" height="90" fill="#0D1117"/>
  <!-- Trophy icon -->
  <g transform="translate(384, 6)">
    <path d="M8 2h16v14a8 8 0 0 1-16 0V2z" fill="#38bdf8" opacity="0.9"/>
    <path d="M2 4h6v8a6 6 0 0 1-6 0V4z" fill="#38bdf8" opacity="0.7"/>
    <path d="M24 4h6v8a6 6 0 0 1-6 0V4z" fill="#38bdf8" opacity="0.7"/>
    <rect x="11" y="26" width="10" height="4" fill="#38bdf8" opacity="0.9"/>
    <rect x="8" y="30" width="16" height="3" rx="1" fill="#38bdf8" opacity="0.9"/>
  </g>
  <text x="400" y="72" font-family="'Segoe UI', Arial, sans-serif" font-size="24" font-weight="800"
        fill="#38bdf8" text-anchor="middle" letter-spacing="3">
    GITHUB TROPHIES
  </text>
  <rect x="250" y="84" width="300" height="2" fill="url(#lineGrad)"/>
</svg>