<svg xmlns="http://www.w3.org/2000/svg" width="100%" height="80" viewBox="0 0 1440 120" preserveAspectRatio="none">
  <defs>
    <linearGradient id="grad" x1="0%" y1="0%" x2="100%" y2="0%">
      <stop offset="0%" style="stop-color:#0d1117;stop-opacity:1" />
      <stop offset="50%" style="stop-color:#1f6feb;stop-opacity:1" />
      <stop offset="100%" style="stop-color:#0d1117;stop-opacity:1" />
    </linearGradient>
  </defs>
  <path fill="url(#grad)" fill-opacity="0.4" d="M0,32L60,42.7C120,53,240,75,360,80C480,85,600,75,720,58.7C840,43,960,21,1080,21.3C1200,21,1320,43,1380,53.3L1440,64L1440,0L1380,0C1320,0,1200,0,1080,0C960,0,840,0,720,0C600,0,480,0,360,0C240,0,120,0,60,0L0,0Z">
    <animate attributeName="d" dur="10s" repeatCount="indefinite" values="M0,32L60,42.7C120,53,240,75,360,80C480,85,600,75,720,58.7C840,43,960,21,1080,21.3C1200,21,1320,43,1380,53.3L1440,64L1440,0L1380,0C1320,0,1200,0,1080,0C960,0,840,0,720,0C600,0,480,0,360,0C240,0,120,0,60,0L0,0Z; M0,64L60,53.3C120,43,240,21,360,21.3C480,21,600,43,720,58.7C840,75,960,85,1080,80C1200,75,1320,53,1380,42.7L1440,32L1440,0L1380,0C1320,0,1200,0,1080,0C960,0,840,0,720,0C600,0,480,0,360,0C240,0,120,0,60,0L0,0Z; M0,32L60,42.7C120,53,240,75,360,80C480,85,600,75,720,58.7C840,43,960,21,1080,21.3C1200,21,1320,43,1380,53.3L1440,64L1440,0L1380,0C1320,0,1200,0,1080,0C960,0,840,0,720,0C600,0,480,0,360,0C240,0,120,0,60,0L0,0Z" />
  </path>
  <path fill="url(#grad)" fill-opacity="0.7" d="M0,64L60,69.3C120,75,240,85,360,80C480,75,600,53,720,48C840,43,960,53,1080,58.7C1200,64,1320,64,1380,64L1440,64L1440,0L1380,0C1320,0,1200,0,1080,0C960,0,840,0,720,0C600,0,480,0,360,0C240,0,120,0,60,0L0,0Z">
    <animate attributeName="d" dur="7s" repeatCount="indefinite" values="M0,64L60,69.3C120,75,240,85,360,80C480,75,600,53,720,48C840,43,960,53,1080,58.7C1200,64,1320,64,1380,64L1440,64L1440,0L1380,0C1320,0,1200,0,1080,0C960,0,840,0,720,0C600,0,480,0,360,0C240,0,120,0,60,0L0,0Z; M0,48L60,53.3C120,58.7C240,64,360,64,480,58.7C600,53,720,43,840,42.7C960,43,1080,53,1200,58.7C1320,64,1380,69.3L1440,75L1440,0L1380,0C1320,0,1200,0,1080,0C960,0,840,0,720,0C600,0,480,0,360,0C240,0,120,0,60,0L0,0Z; M0,64L60,69.3C120,75,240,85,360,80C480,75,600,53,720,48C840,43,960,53,1080,58.7C1200,64,1320,64,1380,64L1440,64L1440,0L1380,0C1320,0,1200,0,1080,0C960,0,840,0,720,0C600,0,480,0,360,0C240,0,120,0,60,0L0,0Z" />
  </path>
</svg>